<svg xmlns="http://www.w3.org/2000/svg" viewBox="0 0 272.52 267.89"><defs><style>.cls-1{fill:none;stroke:#000;stroke-linejoin:bevel;stroke-width:13px;}</style></defs><title>Asset 2dialogue</title><g id="Layer_2" data-name="Layer 2"><g id="Layer_2-2" data-name="Layer 2"><path class="cls-1" d="M198.79,102.47a69.16,69.16,0,0,0,5.29-26.62V52.15A45.66,45.66,0,0,0,158.41,6.5H52.16A45.68,45.68,0,0,0,6.5,52.2V75.83A69.1,69.1,0,0,0,28.23,126.2h0l-8.6,31.61A7,7,0,0,0,30.83,165L56.26,144.2l12.18.15"/><path class="cls-1" d="M216.26,239l25.43,20.82a7,7,0,0,0,11.2-7.21L244.29,221h0A69.17,69.17,0,0,0,266,170.62V147a45.68,45.68,0,0,0-45.66-45.7H114.11a45.65,45.65,0,0,0-45.67,45.65v23.7A69.31,69.31,0,0,0,137.73,240h0Z"/><rect x="107.85" y="156.93" width="20.22" height="20.22"/><rect x="153.89" y="156.93" width="20.22" height="20.22"/><rect x="200.46" y="156.93" width="20.22" height="20.22"/><rect x="140.45" y="60.14" width="20.22" height="20.22"/><rect x="94.41" y="60.14" width="20.22" height="20.22"/><rect x="47.84" y="60.14" width="20.22" height="20.22"/></g></g></svg>