<svg xmlns="http://www.w3.org/2000/svg" viewBox="0 0 300.24 255.72"><defs><style>.cls-1{fill:none;}.cls-1,.cls-2{stroke:#000;stroke-linejoin:bevel;stroke-width:13px;}</style></defs><title>Asset 1house-plan</title><g id="Layer_2" data-name="Layer 2"><g id="Layer_3" data-name="Layer 3"><polyline class="cls-1" points="282.43 194.41 82.64 249.46 5.31 139.68 58.17 126.43"/><polygon class="cls-1" points="100.65 204.83 54.17 145.57 58.28 41.25 79.93 16.4 100.65 75.54 100.65 204.83"/><line class="cls-1" x1="270.93" y1="197.21" x2="214.95" y2="153.79"/><line class="cls-1" x1="212.85" y1="115.22" x2="287.97" y2="163.32"/><polygon class="cls-1" points="214.95 68.16 100.65 85.71 100.65 207.08 214.95 175.36 214.95 68.16"/><polygon class="cls-2" points="228.55 75.76 108.26 93.96 77.93 18.65 188.07 6.46 228.55 75.76"/><ellipse class="cls-1" cx="275.88" cy="177.76" rx="18.84" ry="17.15" transform="translate(-37.53 275.12) rotate(-50.05)"/><polygon points="150.93 135.74 126.32 141.15 126.32 116.54 150.93 112.13 150.93 135.74"/><polygon points="193.24 127.68 172.38 131.98 172.38 108.88 193.24 105.57 193.24 127.68"/><polygon points="174.85 181.01 150.24 189.01 150.24 151.6 174.85 146.08 174.85 181.01"/></g></g></svg>