<?xml version="1.0" encoding="UTF-8" standalone="no"?>
<!DOCTYPE svg PUBLIC "-//W3C//DTD SVG 1.1//EN" "http://www.w3.org/Graphics/SVG/1.1/DTD/svg11.dtd">
<svg width="100%" height="100%" viewBox="0 0 1617 574" version="1.1" style="fill-rule:evenodd;clip-rule:evenodd;stroke-linejoin:round;stroke-miterlimit:2;">
    <g transform="matrix(1,0,0,1,-2477.5,-105.848)">
        <g transform="matrix(1,0,0,1,2391.73,0)">
            <g transform="matrix(1,0,0,1,85.7773,114.584)">
                <path d="M0,556.704C1.659,555.202 3.39,553.772 4.966,552.186C14.211,542.88 23.569,533.677 32.604,524.168C43.731,512.456 54.511,500.421 65.186,488.289C91.298,458.612 116.235,427.966 140.683,396.92C162.657,369.016 184.204,340.78 205.179,312.114C221.048,290.423 236.88,268.703 252.564,246.878C264.888,229.73 277.038,212.457 289.128,195.143C323.935,145.295 357.94,94.904 391.382,44.131C401.677,28.5 411.769,12.734 421.989,-2.946C423.295,-4.949 424.818,-6.81 426.241,-8.736L432.001,-8.736C432.763,-7.926 433.636,-7.194 434.259,-6.289C435.224,-4.887 435.321,-3.268 434.724,-1.694C434.331,-0.656 433.784,0.34 433.199,1.288C414.938,30.86 399,61.688 383.622,92.821C367.324,125.816 352.172,159.333 337.681,193.156C328.356,214.918 319.352,236.809 310.729,258.857C299.835,286.716 289.432,314.758 280.178,343.211C274.785,359.791 269.737,376.474 265.84,393.485C264.445,399.57 263.353,405.706 262.54,411.889C262.249,414.097 262.346,416.358 262.337,418.597C262.335,419.005 262.573,419.564 262.889,419.786C263.312,420.085 263.796,419.724 264.087,419.345C265.549,417.444 267.06,415.574 268.42,413.602C272.967,407.013 277.015,400.114 280.896,393.116C294.396,368.766 306.784,343.839 319.402,319.03C330.136,297.928 341.034,276.91 352.719,256.313C358.878,245.455 365.409,234.823 372.62,224.625C376.509,219.126 380.82,213.985 385.761,209.385C388.007,207.293 390.465,205.531 393.282,204.312C399.878,201.458 406.092,203.462 409.825,209.632C412.195,213.549 413.337,217.919 413.753,222.378C414.241,227.622 415.021,232.874 414.726,238.168C414.288,245.987 413.806,253.804 413.271,261.617C412.954,266.241 412.53,270.858 412.103,275.474C411.041,286.933 410.056,298.402 408.841,309.845C407.522,322.269 406.876,334.707 407.247,347.198C407.333,350.102 407.864,352.916 408.618,355.696C408.935,356.867 410.076,357.148 410.79,356.241C411.776,354.989 412.71,353.686 413.583,352.352C418.062,345.515 421.814,338.262 425.522,331C434.981,312.477 443.765,293.627 452.526,274.767C457.312,264.469 462.1,254.171 466.896,243.877C475.272,225.899 483.647,207.92 492.044,189.951C495.159,183.286 498.268,176.615 501.5,170.006C510.916,150.75 520.199,131.426 529.896,112.312C541.187,90.058 552.953,68.049 565.939,46.718C572.517,35.914 579.477,25.37 587.281,15.406C590.637,11.123 594.144,6.967 598.069,3.181C600.728,0.617 603.599,-1.67 606.669,-3.715C609.642,-5.696 612.921,-6.933 616.411,-7.588C617.493,-7.792 618.637,-7.83 619.735,-7.738C621.235,-7.613 622.041,-6.597 621.89,-5.126C621.742,-3.696 621.444,-2.282 621.259,-0.856C620.897,1.922 619.771,3.664 616.681,4.405C613.064,5.271 610.241,7.854 607.526,10.374C601.514,15.954 596.483,22.378 591.685,28.983C581.042,43.636 571.897,59.229 563.053,75.003C548.729,100.547 535.468,126.647 522.761,153.022C510.335,178.815 498.247,204.771 486.06,230.679C478.024,247.758 470.024,264.853 462.104,281.985C454.251,298.975 446.222,315.88 437.765,332.577C434.368,339.282 430.842,345.927 427.19,352.497C425.253,355.984 423.003,359.309 420.731,362.597C419.653,364.157 418.349,365.643 416.884,366.844C411.136,371.554 403.431,370.231 399.446,363.95C398.06,361.765 397.159,359.354 396.669,356.833C396.149,354.168 395.565,351.473 395.478,348.774C395.196,340.145 394.968,331.511 395.942,322.891C396.499,317.97 396.702,313.011 397.161,308.077C398.008,299.007 398.944,289.944 399.807,280.875C400.276,275.943 400.702,271.005 401.095,266.066C401.651,259.055 402.165,252.04 402.688,245.027C403.274,237.176 402.762,229.364 401.742,221.58C401.577,220.324 401.151,219.088 400.737,217.88C399.62,214.618 398.689,214.294 395.929,216.11C393.907,217.439 392.163,219.083 390.577,220.895C387.099,224.871 383.807,228.99 380.804,233.345C372.714,245.083 365.509,257.359 358.608,269.818C345.896,292.773 334.066,316.188 322.161,339.566C312.362,358.808 302.685,378.116 292.175,396.988C287.736,404.957 283.228,412.884 277.981,420.358C276.237,422.845 274.401,425.274 272.478,427.622C270.639,429.866 268.422,431.727 265.773,432.972C260.514,435.442 254.927,433.502 252.382,428.302C251.028,425.532 250.498,422.556 250.382,419.477C250.18,414.163 250.952,408.942 251.813,403.737C254.143,389.668 257.927,375.946 261.934,362.284C268.553,339.712 276.263,317.503 284.312,295.41C292.415,273.165 300.963,251.09 309.897,229.167C320.825,202.357 332.081,175.685 344.108,149.345C349.489,137.56 354.939,125.807 360.354,114.037C360.673,113.341 360.945,112.623 361.293,111.786C359.867,111.875 359.686,112.959 359.212,113.652C348.661,129.113 338.179,144.62 327.606,160.066C309.264,186.866 290.661,213.484 271.88,239.979C245.881,276.658 219.443,313.015 192.388,348.92C171.013,377.285 149.257,405.356 126.94,432.989C110.759,453.028 94.298,472.839 77.331,492.218C66.689,504.371 55.88,516.378 44.851,528.19C34.363,539.422 23.55,550.319 12.62,561.11C8.235,565.44 8.221,565.392 3.933,561.153C2.688,559.923 1.315,558.823 0,557.665L0,556.704Z" style="fill:white;"/>
            </g>
            <g transform="matrix(1,0,0,1,1169.5,231.652)">
                <path d="M0,130.054C-1.494,131.08 -1.539,132.293 -1.907,133.298C-7.569,148.749 -13.035,164.271 -18.008,179.96C-22.4,193.819 -26.626,207.729 -29.543,221.994C-30.472,226.537 -31.304,231.095 -31.279,235.754C-31.273,236.994 -31.837,238.684 -30.664,239.332C-29.174,240.157 -28.064,238.582 -27.044,237.688C-21.508,232.834 -16.406,227.539 -11.574,221.992C-2.125,211.147 6.921,199.971 15.776,188.634C20.161,183.02 19.715,183.68 16.812,178.188C9.979,165.264 4.759,151.744 1.57,137.462C1.051,135.132 0.579,132.791 0,130.054M237.363,-107.364C236.373,-107.727 235.935,-107.2 235.474,-106.852C230.496,-103.096 225.439,-99.438 220.579,-95.536C201.242,-80.012 182.716,-63.541 164.333,-46.917C147.729,-31.903 131.332,-16.659 114.956,-1.395C102.675,10.053 90.485,21.603 78.411,33.27C62.312,48.827 46.33,64.509 30.367,80.207C25.009,85.475 19.943,91.04 14.582,96.304C11.751,99.083 10.686,102.425 10.357,106.173C10.288,106.969 10.281,107.77 10.237,108.569C9.903,114.674 10.645,120.721 11.565,126.715C13.767,141.039 18.271,154.668 24.63,167.683C25.453,169.37 26.176,171.147 27.746,172.658C29.574,171.048 30.853,169.228 32.188,167.462C45.397,149.983 58.597,132.495 71.817,115.025C103.761,72.815 135.769,30.655 167.639,-11.61C182.178,-30.89 196.519,-50.321 210.821,-69.777C218.872,-80.728 226.67,-91.863 234.558,-102.933C235.554,-104.331 236.4,-105.835 237.363,-107.364M22.433,70.758C23.832,70.62 24.493,69.424 25.347,68.593C37.159,57.105 48.881,45.524 60.751,34.095C75.27,20.116 89.841,6.188 104.513,-7.632C117.438,-19.805 130.439,-31.9 143.572,-43.849C163.923,-62.364 184.345,-80.803 205.561,-98.335C214.439,-105.672 223.358,-112.97 233.04,-119.252C235.583,-120.903 238.255,-122.365 240.925,-123.808C242.931,-124.892 245.128,-125.27 247.421,-125.175C252.254,-124.973 255.368,-121.285 254.642,-116.478C254.329,-114.412 253.585,-112.461 252.68,-110.577C250.945,-106.968 248.973,-103.497 246.783,-100.14C240.05,-89.817 232.723,-79.912 225.473,-69.955C200.328,-35.423 174.605,-1.321 148.863,32.765C122.64,67.489 96.357,102.169 70.085,136.856C59.267,151.139 48.406,165.39 37.565,179.656C37.082,180.292 36.594,180.926 36.125,181.575C34.164,184.29 34.123,184.321 35.931,187.038C39.481,192.373 44.445,197.394 48.705,202.18C65.613,220.348 86.988,231.358 105.328,240.947C109.958,243.367 109.97,243.497 107.613,248.234C107.472,248.52 107.319,248.802 107.171,249.085C104.861,253.522 104.399,253.695 99.818,251.263C75.613,239.681 45.479,220.649 29.169,197.873C26.395,194.127 26.387,194.122 23.519,197.753C14.296,209.428 4.99,221.037 -4.945,232.119C-9.964,237.717 -15.083,243.24 -21.091,247.824C-22.737,249.079 -24.454,250.309 -26.3,251.227C-34.539,255.324 -41.979,251.292 -42.959,242.103C-43.449,237.492 -43.304,232.841 -42.6,228.225C-40.543,214.748 -36.943,201.643 -33.014,188.626C-23.529,157.218 -12.246,126.431 -0.459,95.833C8.797,71.805 18.299,47.869 27.937,23.991C41.285,-9.085 55.127,-41.957 69.228,-74.719C75.172,-88.529 81.174,-102.313 87.17,-116.1C87.87,-117.71 88.65,-119.289 89.487,-120.833C89.993,-121.766 90.932,-122.21 91.932,-121.803C94.296,-120.842 96.633,-119.806 98.929,-118.693C99.896,-118.223 100.184,-117.258 99.823,-116.228C99.349,-114.871 98.854,-113.517 98.278,-112.201C84.159,-79.97 70.243,-47.653 56.808,-15.13C47.098,8.373 37.498,31.923 27.875,55.462C26.12,59.755 24.471,64.091 22.813,68.423C22.546,69.12 21.966,69.805 22.433,70.758" style="fill:white;"/>
            </g>
            <g transform="matrix(1,0,0,1,980.967,412.45)">
                <path d="M0,-127.009C7.037,-127.143 14.095,-126.997 21.106,-127.492C27.463,-127.941 33.836,-128.562 40.114,-129.823C41.676,-130.137 43.278,-130.269 44.868,-130.42C45.955,-130.523 46.68,-129.965 47.045,-128.944C47.152,-128.643 47.269,-128.342 47.34,-128.031C49.49,-118.65 49.687,-119.758 41.238,-118.273C23.044,-115.075 4.658,-114.872 -13.739,-115.477C-18.203,-115.624 -22.646,-116.368 -27.135,-116.275C-27.934,-116.259 -28.738,-116.253 -29.533,-116.322C-31.762,-116.519 -33.071,-115.483 -33.992,-113.485C-36.334,-108.401 -38.839,-103.393 -41.231,-98.331C-44.99,-90.379 -48.692,-82.399 -52.448,-74.445C-61.874,-54.487 -71.397,-34.575 -80.728,-14.572C-88.839,2.819 -96.944,20.221 -103.825,38.154C-105.948,43.685 -107.71,49.31 -108.921,55.13C-110.134,60.954 -107.581,61.32 -103.297,60.675C-101.587,60.418 -99.913,59.734 -98.3,59.058C-94.597,57.505 -91.201,55.406 -87.94,53.063C-80.628,47.808 -74.219,41.566 -68.052,35.051C-67.063,34.007 -66.063,32.968 -65.011,31.99C-64.228,31.261 -63.29,31.189 -62.366,31.761C-60.179,33.118 -58.239,34.782 -56.517,36.689C-55.761,37.527 -55.877,38.466 -56.492,39.318C-57.24,40.353 -57.997,41.396 -58.859,42.334C-65.581,49.656 -72.735,56.513 -80.819,62.333C-84.98,65.327 -89.327,68.024 -94.102,69.966C-96.929,71.116 -99.866,71.868 -102.843,72.494C-106.068,73.173 -109.213,72.804 -112.288,71.73C-118.241,69.653 -121.507,64.452 -120.996,56.806C-120.708,52.496 -119.691,48.279 -118.388,44.145C-115.399,34.672 -111.589,25.518 -107.636,16.422C-98.839,-3.823 -89.435,-23.792 -79.999,-43.745C-69.06,-66.879 -58.116,-90.01 -47.175,-113.144C-46.901,-113.722 -46.616,-114.296 -46.377,-114.888C-45.501,-117.065 -45.961,-117.881 -48.226,-118.08C-56.339,-118.795 -64.458,-119.449 -72.568,-120.206C-77.496,-120.666 -82.41,-121.274 -87.331,-121.81C-87.808,-121.862 -88.29,-121.861 -88.767,-121.912C-90.921,-122.143 -92.417,-121.377 -93.37,-119.319C-95.454,-114.821 -97.7,-110.398 -99.821,-105.916C-103.583,-97.965 -107.281,-89.984 -111.042,-82.031C-120.544,-61.933 -130.146,-41.881 -139.557,-21.739C-148.492,-2.614 -157.51,16.48 -165.229,36.146C-167.159,41.062 -168.876,46.046 -170.229,51.158C-170.767,53.187 -171.087,55.232 -171.079,57.316C-171.069,60.097 -170.089,61.002 -167.194,60.835C-165.935,60.762 -164.663,60.495 -163.443,60.152C-160.345,59.275 -157.496,57.843 -154.763,56.142C-148.349,52.146 -142.517,47.428 -137.203,42.066C-134.276,39.113 -131.415,36.092 -128.484,33.141C-126.103,30.742 -125.597,30.74 -122.856,32.904C-121.979,33.598 -121.144,34.347 -120.298,35.081C-117.362,37.633 -117.229,38.115 -119.693,40.823C-128.113,50.077 -137.066,58.743 -147.71,65.475C-153.028,68.838 -158.682,71.357 -164.929,72.472C-167.997,73.02 -170.967,72.867 -173.924,71.926C-179.235,70.236 -182.47,66.261 -182.899,60.697C-183.261,56.025 -182.681,51.454 -181.353,46.949C-178.815,38.343 -175.638,29.972 -172.115,21.734C-164.067,2.907 -155.423,-15.65 -146.68,-34.161C-133.428,-62.217 -120.182,-90.276 -106.935,-118.334C-106.594,-119.057 -106.238,-119.776 -105.951,-120.52C-105.398,-121.957 -105.802,-122.79 -107.206,-122.935C-110.543,-123.28 -113.886,-123.775 -117.23,-123.813C-127.468,-123.93 -137.718,-124.158 -147.942,-123.776C-157.351,-123.424 -166.739,-122.405 -176.028,-120.719C-176.657,-120.605 -177.272,-120.401 -177.903,-120.317C-180.621,-119.954 -181.395,-120.402 -182.133,-122.949C-182.532,-124.326 -182.805,-125.748 -183.03,-127.165C-183.558,-130.486 -183.264,-131.079 -179.893,-131.732C-175.349,-132.611 -170.775,-133.457 -166.175,-133.911C-154.246,-135.09 -142.277,-136.173 -130.292,-135.722C-121.04,-135.375 -111.747,-135.493 -102.536,-134.311C-100.476,-134.047 -99.173,-134.733 -98.315,-136.585C-96.972,-139.488 -95.53,-142.345 -94.177,-145.243C-86.463,-161.763 -78.774,-178.296 -71.05,-194.811C-68.729,-199.772 -68.651,-199.767 -63.54,-197.428C-58.015,-194.899 -58.014,-194.899 -60.612,-189.355C-68.148,-173.281 -75.688,-157.209 -83.214,-141.13C-84.028,-139.392 -84.81,-137.636 -85.517,-135.854C-86.211,-134.103 -85.812,-133.391 -84.124,-133.15C-82.067,-132.856 -80.015,-132.511 -77.948,-132.325C-73.177,-131.894 -68.394,-131.592 -63.622,-131.151C-58.535,-130.68 -53.457,-130.112 -48.375,-129.584C-48.216,-129.568 -48.061,-129.519 -47.901,-129.508C-38.375,-128.882 -39.818,-128.71 -36.549,-135.626C-27.39,-155.001 -18.347,-174.431 -9.26,-193.841C-6.292,-200.182 -6.48,-199.88 -0.536,-197.054C3.925,-194.933 4.043,-194.658 2.018,-190.212C-0.635,-184.391 -3.369,-178.606 -6.094,-172.819C-12.295,-159.651 -18.521,-146.495 -24.717,-133.326C-27.069,-128.325 -26.616,-127.511 -21.115,-127.431C-14.078,-127.33 -7.039,-127.407 -0.001,-127.407C-0.001,-127.274 0,-127.142 0,-127.009" style="fill:white;"/>
            </g>
            <g transform="matrix(1,0,0,1,1310.05,437.87)">
                <path d="M0,-5.917C1.387,-6.645 1.702,-7.783 2.289,-8.697C8.775,-18.802 15.633,-28.633 23.51,-37.721C27.192,-41.969 31.232,-45.819 35.854,-49.042C38.494,-50.883 41.298,-52.368 44.409,-53.28C45.971,-53.738 47.533,-53.931 49.141,-53.898C53.888,-53.799 57.336,-51.327 58.929,-46.825C60.132,-43.424 60.192,-39.939 59.616,-36.407C58.323,-28.481 55.943,-20.859 53.242,-13.323C52.658,-11.693 52.088,-10.057 51.339,-7.937C52.958,-8.441 53.323,-9.506 53.837,-10.334C58.64,-18.087 63.562,-25.757 69.146,-32.98C73.067,-38.053 77.277,-42.858 82.194,-46.999C85.526,-49.805 89.136,-52.135 93.401,-53.28C96.887,-54.215 100.345,-54.257 103.759,-52.944C107.925,-51.342 110.62,-48.384 111.889,-44.117C112.77,-41.151 112.848,-38.166 112.386,-35.1C111.259,-27.607 108.831,-20.5 106.035,-13.52C102.826,-5.504 99.415,2.43 96.071,10.391C93.902,15.557 92.066,20.838 90.488,26.213C89.987,27.922 89.717,29.645 89.759,31.415C89.819,33.888 91.13,34.918 93.532,34.201C94.896,33.795 96.22,33.157 97.452,32.437C100.494,30.657 103.367,28.626 105.959,26.221C111.238,21.32 116.313,16.227 120.903,10.66C124.987,5.706 125.012,5.725 129.955,9.646C134.063,12.906 134.099,13.221 130.761,17.139C124.429,24.576 117.89,31.805 110.168,37.864C106.497,40.746 102.585,43.211 98.223,44.895C94.577,46.302 90.896,46.996 86.995,45.684C81.57,43.858 78.235,39.781 77.86,34.027C77.693,31.473 77.827,28.93 78.372,26.396C79.62,20.586 81.561,14.998 83.78,9.514C87.559,0.176 91.516,-9.09 95.297,-18.426C97.459,-23.763 99.346,-29.201 100.421,-34.888C100.721,-36.473 100.926,-38.052 100.707,-39.652C100.429,-41.69 98.938,-42.697 96.943,-42.22C95.212,-41.807 93.642,-41.035 92.186,-40.012C89.159,-37.886 86.482,-35.394 84.036,-32.616C75.644,-23.087 68.769,-12.49 62.308,-1.623C56.261,8.549 50.451,18.861 44.521,29.101C42.036,33.391 39.584,37.702 36.539,41.638C35.458,43.035 34.349,44.393 32.813,45.328C27.872,48.34 22.476,45.534 22.092,39.751C21.919,37.154 22.365,34.633 23.216,32.205C24.961,27.228 26.711,22.248 28.617,17.33C32.895,6.299 37.318,-4.677 41.582,-15.714C44.119,-22.282 46.243,-28.991 47.568,-35.923C47.915,-37.738 48.951,-40.035 47.044,-41.2C45.374,-42.221 43.852,-40.286 42.444,-39.362C38.262,-36.615 34.877,-32.974 31.632,-29.218C24.503,-20.968 18.345,-12.011 12.494,-2.83C3.808,10.801 -4.004,24.938 -11.84,39.062C-12.925,41.018 -14.057,42.959 -15.334,44.789C-16.969,47.133 -19.337,47.947 -22.083,47.236C-24.712,46.555 -25.907,44.523 -26.429,42.014C-26.761,40.422 -26.611,38.84 -26.355,37.248C-25.49,31.867 -24.087,26.622 -22.455,21.43C-18.09,7.543 -12.892,-6.052 -7.982,-19.748C-4.8,-28.628 -1.696,-37.537 1.435,-46.435C2.95,-50.742 3.247,-50.916 7.655,-49.593C9.185,-49.135 10.697,-48.609 12.182,-48.024C13.203,-47.622 13.609,-46.727 13.37,-45.685C13.05,-44.286 12.67,-42.892 12.191,-41.539C8.408,-30.836 4.584,-20.148 0.807,-9.443C0.446,-8.422 -0.287,-7.481 0,-5.917" style="fill:white;"/>
            </g>
            <g transform="matrix(1,0,0,1,1617.11,407.579)">
                <path d="M0,-116.769C7.358,-116.769 14.724,-116.595 22.074,-116.834C26.528,-116.979 30.974,-117.676 35.4,-118.283C40.183,-118.939 40.913,-118.488 41.784,-113.672C41.841,-113.357 41.891,-113.04 41.921,-112.723C42.365,-108.051 42.98,-107.477 37.121,-106.708C19.95,-104.456 2.68,-104.189 -14.584,-104.96C-20.168,-105.21 -25.798,-105.153 -31.336,-105.802C-38.016,-106.584 -44.771,-106.126 -51.406,-107.331C-52.186,-107.473 -53.005,-107.381 -53.798,-107.467C-56.221,-107.73 -57.66,-106.603 -58.642,-104.439C-61.221,-98.76 -63.924,-93.137 -66.556,-87.481C-74.518,-70.37 -82.53,-53.281 -90.408,-36.131C-101.021,-13.021 -111.795,10.022 -121.066,33.72C-123.979,41.165 -126.726,48.679 -128.418,56.527C-128.859,58.578 -129.073,60.637 -128.932,62.722C-128.789,64.812 -127.992,65.576 -125.962,65.739C-123.34,65.948 -120.882,65.293 -118.501,64.285C-113.157,62.023 -108.356,58.88 -103.824,55.28C-97.54,50.288 -91.934,44.592 -86.422,38.789C-83.286,35.489 -82.941,35.497 -79.373,38.372C-74.314,42.444 -74.261,42.908 -78.676,47.649C-85.119,54.567 -91.934,61.085 -99.564,66.705C-103.18,69.367 -106.978,71.74 -111.004,73.723C-114.61,75.498 -118.446,76.627 -122.388,77.382C-125.102,77.902 -127.774,77.755 -130.451,76.981C-136.719,75.173 -140.449,70.679 -140.841,64.157C-141.004,61.442 -140.906,58.731 -140.37,56.034C-139.433,51.317 -138.117,46.712 -136.605,42.153C-132.472,29.689 -127.328,17.623 -122.1,5.595C-112.278,-16.997 -101.923,-39.345 -91.48,-61.654C-84.903,-75.706 -78.354,-89.771 -71.807,-103.836C-71.337,-104.845 -70.917,-105.886 -70.593,-106.949C-70.367,-107.689 -70.892,-108.257 -71.554,-108.327C-75.366,-108.725 -79.184,-109.279 -83.007,-109.343C-93.242,-109.514 -103.482,-109.482 -113.721,-109.489C-116.597,-109.49 -119.485,-109.517 -122.311,-108.799C-122.618,-108.721 -122.942,-108.7 -123.261,-108.673C-125.924,-108.456 -126.773,-109.029 -127.377,-111.53C-127.639,-112.617 -127.835,-113.722 -128.015,-114.827C-128.68,-118.917 -127.943,-120.001 -123.693,-120.427C-110.942,-121.703 -98.175,-122.088 -85.393,-120.816C-83.804,-120.658 -82.2,-120.647 -80.602,-120.601C-76.449,-120.481 -72.299,-120.573 -68.165,-119.842C-65.051,-119.291 -64.414,-119.784 -63.008,-122.781C-58.044,-133.349 -53.105,-143.93 -48.158,-154.506C-42.669,-166.241 -37.181,-177.977 -31.691,-189.712C-31.488,-190.147 -31.294,-190.586 -31.074,-191.013C-29.261,-194.522 -28.881,-194.671 -25.121,-193.068C-23.651,-192.441 -22.201,-191.752 -20.805,-190.979C-19.378,-190.19 -19.128,-189.373 -19.7,-187.755C-20.02,-186.853 -20.437,-185.984 -20.845,-185.115C-28.645,-168.457 -36.453,-151.802 -44.251,-135.143C-46.488,-130.363 -48.719,-125.58 -50.911,-120.779C-51.432,-119.639 -50.959,-118.811 -49.805,-118.727C-44.707,-118.36 -39.601,-118.087 -34.507,-117.666C-23.021,-116.717 -11.513,-116.575 0,-116.769" style="fill:white;"/>
            </g>
            <g transform="matrix(1,0,0,1,1554.65,402.682)">
                <path d="M0,62.57C-0.016,64.555 0.346,65.945 0.989,67.239C1.777,68.82 3.147,69.682 4.885,69.425C7.253,69.076 9.541,68.341 11.505,66.886C12.099,66.447 12.186,65.691 11.548,65.3C8.429,63.387 5.271,61.536 2.099,59.713C1.468,59.351 0.781,59.592 0.54,60.308C0.239,61.199 0.098,62.144 0,62.57M56.904,0.596C56.808,-0.183 56.775,-1.153 56.554,-2.077C55.759,-5.395 54.221,-6.601 50.843,-6.734C48.072,-6.843 45.438,-6.271 42.895,-5.222C37.513,-2.999 32.757,0.191 28.449,4.091C18.39,13.2 11.574,24.48 6.454,36.894C5.661,38.816 5.037,40.806 4.24,42.726C3.52,44.461 3.981,45.832 5.274,47.043C5.624,47.371 5.954,47.724 6.324,48.027C10.94,51.807 16.147,54.598 21.535,57.084C22.851,57.69 24.009,57.453 25.026,56.412C25.921,55.497 26.868,54.634 27.755,53.711C37.478,43.593 45.371,32.204 51.467,19.565C53.07,16.241 54.331,12.787 55.347,9.248C56.141,6.481 56.766,3.671 56.904,0.596M36.453,62.229C36.767,63.138 37.617,63.318 38.333,63.529C45.998,65.775 53.748,67.59 61.669,68.777C71.068,70.188 80.519,70.301 89.883,69.451C104.357,68.136 117.568,63.225 128.537,53.25C131.514,50.543 133.955,47.39 136.353,44.186C138.771,40.955 139.05,40.916 142.568,43.04C144.07,43.947 145.556,44.894 146.975,45.924C147.854,46.563 147.984,47.566 147.483,48.502C146.958,49.482 146.323,50.413 145.66,51.309C137.264,62.652 126.568,70.985 113.277,75.859C106.204,78.453 98.922,80.04 91.41,80.949C84.695,81.762 77.995,81.954 71.319,81.481C58.542,80.576 45.99,78.235 33.788,74.22C32.118,73.672 30.428,73.176 28.785,72.556C26.814,71.812 25.075,72.062 23.373,73.314C20.664,75.308 17.754,76.983 14.703,78.407C11.177,80.053 7.52,80.935 3.575,80.804C-4.268,80.545 -9.938,75.571 -11.239,67.778C-11.962,63.445 -11.651,59.134 -10.904,54.902C-7.497,35.613 0.407,18.331 12.958,3.278C19.368,-4.409 26.97,-10.687 36.158,-14.932C40.126,-16.766 44.26,-17.938 48.546,-18.478C55.728,-19.384 65.441,-16.414 68.049,-4.741C69.209,0.454 68.463,5.439 67.232,10.414C65.536,17.276 62.783,23.751 59.409,29.948C53.576,40.664 46.568,50.555 38.369,59.598C37.641,60.401 36.615,61.017 36.453,62.229" style="fill:white;"/>
            </g>
            <g transform="matrix(1,0,0,1,667.833,213.116)">
                <path d="M0,272.163C-3.251,272.164 -5.719,271.537 -8.071,270.466C-13.15,268.154 -15.912,262.916 -15.357,256.042C-14.982,251.411 -13.873,246.902 -12.416,242.475C-8.561,230.756 -3.699,219.441 1.316,208.192C12.585,182.915 24.499,157.939 36.374,132.944C47.426,109.683 58.43,86.4 69.4,63.1C78.395,43.998 87.306,24.857 96.261,5.736C96.871,4.434 97.482,3.125 98.196,1.878C99.071,0.351 99.844,-0.001 101.339,0.637C103.54,1.575 105.686,2.651 107.82,3.736C108.801,4.234 109.11,5.162 108.757,6.183C108.287,7.54 107.774,8.89 107.165,10.189C98.604,28.435 90.049,46.684 81.443,64.909C67.512,94.416 53.477,123.875 39.615,153.416C30.036,173.832 20.618,194.325 11.24,214.836C6.918,224.291 2.934,233.898 -0.445,243.742C-1.693,247.38 -2.686,251.084 -3.328,254.877C-3.46,255.663 -3.603,256.459 -3.615,257.251C-3.645,258.961 -2.756,259.965 -1.084,260.152C1.191,260.406 3.368,259.978 5.492,259.162C11.229,256.959 16.303,253.652 21.098,249.869C27.396,244.896 33.008,239.201 38.521,233.398C41.873,229.871 42.038,229.88 45.921,233.018C47.04,233.923 48.131,234.864 49.195,235.832C50.027,236.588 50.084,237.508 49.445,238.406C48.799,239.318 48.133,240.226 47.378,241.047C40.545,248.483 33.325,255.508 25.123,261.442C20.057,265.108 14.762,268.404 8.729,270.301C5.672,271.262 2.59,272.096 0,272.163" style="fill:white;"/>
            </g>
            <g transform="matrix(1,0,0,1,944.006,397.268)">
                <path d="M0,74.25C0.319,73.543 0.127,73.09 -0.204,72.775C-0.996,72.023 -1.805,71.278 -2.688,70.645C-3.381,70.147 -4.185,69.1 -5.06,70.166C-5.688,70.934 -5.367,71.997 -4.879,72.811C-4.005,74.268 -2.661,74.992 -0.948,74.806C-0.551,74.763 -0.191,74.369 0,74.25M50.828,6.126C50.828,5.647 50.869,5.163 50.822,4.688C50.325,-0.301 47.701,-1.458 44.359,-1.342C41.09,-1.229 38.044,-0.382 35.128,0.977C30.458,3.153 26.261,6.045 22.451,9.522C10.675,20.273 3.305,33.744 -1.836,48.618C-2.632,50.922 -2.402,52.973 -1.077,54.998C2.15,59.935 6.63,63.484 11.55,66.564C12.506,67.162 13.396,66.957 14.202,66.308C15.072,65.606 15.916,64.867 16.728,64.099C21.729,59.367 26.451,54.381 30.655,48.914C37.708,39.744 43.777,30 47.927,19.154C49.529,14.966 50.76,10.665 50.828,6.126M25.303,72.299C27.071,74.207 29.116,74.111 30.931,74.434C37.429,75.584 43.961,75.734 50.439,74.286C58.432,72.5 65.284,68.525 71.332,63.089C75.754,59.113 79.524,54.578 82.883,49.676C85.204,46.285 85.619,46.24 89.003,48.294C90.096,48.957 91.179,49.642 92.223,50.379C94.63,52.08 94.832,52.704 93.299,55.055C91.73,57.463 90.045,59.803 88.287,62.076C82.95,68.98 76.58,74.786 69.042,79.178C57.625,85.83 45.387,88.441 32.188,86.409C26.775,85.576 21.545,84.25 16.506,82.179C14.715,81.442 13.164,81.483 11.49,82.405C9.954,83.251 8.338,83.958 6.729,84.662C3.109,86.246 -0.715,86.502 -4.564,86.074C-11.345,85.319 -16.486,79.787 -17.222,72.436C-17.604,68.613 -17.7,64.725 -17,60.952C-12.81,38.379 -3.414,18.431 13.15,2.202C18.453,-2.994 24.564,-7.029 31.355,-10.05C35.048,-11.692 38.93,-12.639 42.896,-13.1C52.278,-14.191 59.936,-8.664 62.063,0.486C62.834,3.807 62.872,7.099 62.377,10.474C60.861,20.796 56.547,30.034 51.44,38.949C44.889,50.385 36.956,60.779 27.508,69.994C26.828,70.657 26.193,71.365 25.303,72.299" style="fill:white;"/>
            </g>
            <g transform="matrix(1,0,0,1,732.929,403.669)">
                <path d="M0,59.814C0.061,60.768 0.087,61.726 0.189,62.675C0.289,63.593 1.16,64.05 1.942,63.569C4.811,61.801 7.407,59.673 9.884,57.402C17.199,50.69 24.146,43.621 30.373,35.876C36.195,28.633 41.553,21.072 45.797,12.772C47.846,8.765 49.363,4.568 50.291,0.159C50.625,-1.426 50.776,-3.006 50.332,-4.586C49.536,-7.413 47.564,-8.758 44.611,-8.581C42.794,-8.471 41.22,-7.709 39.677,-6.855C36.715,-5.214 34.125,-3.083 31.736,-0.704C17.39,13.596 7.621,30.63 1.617,49.892C0.615,53.106 0.035,56.419 0,59.814M14.037,69.199C19.803,68.503 24.047,66.716 28.115,64.5C37.647,59.306 45.609,52.202 52.631,44.002C56.584,39.387 56.541,39.35 61.348,42.91C65.836,46.234 65.818,46.398 62.329,50.614C55.343,59.057 47.281,66.285 38.064,72.209C32.232,75.956 25.975,78.74 19.162,80.154C12.995,81.433 6.82,81.703 0.673,79.986C-6.877,77.877 -11.17,72.634 -11.703,64.794C-12.119,58.678 -11.49,52.671 -9.762,46.775C-6.271,34.874 -0.982,23.8 5.641,13.351C10.877,5.09 16.697,-2.715 23.877,-9.428C27.398,-12.721 31.172,-15.649 35.533,-17.764C37.555,-18.744 39.641,-19.477 41.852,-19.953C50.857,-21.889 59.388,-16.623 61.723,-7.742C62.908,-3.23 62.28,1.142 61.145,5.505C59.604,11.423 57.105,16.943 54.056,22.232C47.552,33.511 39.603,43.709 30.777,53.232C25.787,58.619 20.572,63.791 14.037,69.199" style="fill:white;"/>
            </g>
            <g transform="matrix(1,0,0,1,645.296,461.215)">
                <path d="M0,-51.144C0,-53.378 0.035,-55.613 -0.013,-57.847C-0.043,-59.293 -0.389,-60.689 -0.974,-62.024C-2.166,-64.748 -4.115,-65.958 -7.04,-65.587C-9.759,-65.242 -12.326,-64.354 -14.704,-62.981C-17.476,-61.38 -20.076,-59.541 -22.559,-57.512C-30.187,-51.27 -36.258,-43.678 -41.553,-35.455C-45.887,-28.722 -49.469,-21.597 -51.865,-13.91C-53.557,-8.482 -53.924,-2.955 -53.496,2.67C-53.324,4.939 -52.666,7.052 -51.595,9.047C-50.82,10.489 -49.812,11.755 -48.266,12.365C-45.269,13.546 -42.205,14.335 -38.926,13.603C-35.617,12.866 -32.526,11.678 -29.694,9.774C-24.994,6.615 -21.092,2.641 -17.762,-1.89C-10.975,-11.124 -6.18,-21.343 -2.949,-32.322C-1.141,-38.47 0.338,-44.67 0,-51.144M11.955,-51.616C12.141,-40.881 9.305,-30.744 5.607,-20.817C1.273,-9.181 -4.734,1.509 -13.084,10.776C-14.563,12.42 -15.032,13.889 -13.82,15.891C-11.66,19.46 -11.96,20.177 -15.843,22.036C-21.086,24.544 -26.576,26.175 -32.459,26.096C-37.241,26.033 -42.021,26.372 -46.77,25.204C-56.7,22.762 -62.656,18.317 -65.167,5.13C-66.125,0.096 -65.756,-5.078 -64.838,-10.142C-63.074,-19.865 -59.084,-28.736 -54.227,-37.249C-48.396,-47.468 -41.076,-56.507 -32.377,-64.424C-27.74,-68.644 -22.693,-72.275 -16.926,-74.818C-13.074,-76.517 -9.068,-77.516 -4.822,-77.228C1.393,-76.807 6.131,-74.043 9.012,-68.393C10.777,-64.93 11.888,-61.286 11.949,-57.371C11.98,-55.453 11.955,-53.534 11.955,-51.616" style="fill:white;"/>
            </g>
            <g transform="matrix(1,0,0,1,549.151,386.237)">
                <path d="M0,93.125C-1.41,93.125 -1.893,93.156 -2.369,93.119C-4.684,92.939 -5.695,92.045 -5.484,89.801C-5.232,87.106 -4.77,84.411 -4.141,81.777C-1.793,71.947 1.886,62.565 5.756,53.261C12.514,37.01 20.102,21.144 28.086,5.464C30.885,-0.031 30.926,-0.028 36.285,2.754C41.256,5.334 41.31,5.389 38.833,10.303C31.994,23.869 25.246,37.479 19.302,51.468C16.801,57.353 14.383,63.277 12.113,69.254C9.614,75.834 7.383,82.518 6.322,89.508C6,91.636 4.847,92.581 2.889,92.83C1.621,92.991 0.348,93.09 0,93.125" style="fill:white;"/>
            </g>
            <g transform="matrix(1,0,0,1,1448.96,387.298)">
                <path d="M0,93.375C-0.16,93.392 -0.323,93.39 -0.478,93.425C-5.159,94.531 -5.473,92.043 -5.137,88.712C-4.865,86.016 -4.359,83.334 -3.803,80.679C-1.531,69.851 2.058,59.417 5.852,49.058C11.518,33.591 17.758,18.354 24.44,3.299C26.369,-1.046 26.585,-1.156 30.79,0.664C38.152,3.851 37.237,3.223 34.357,9.901C28.786,22.821 23.343,35.791 18.393,48.964C15.354,57.048 12.552,65.214 10.107,73.495C8.523,78.859 7.158,84.282 6.596,89.88C6.344,92.386 5.719,92.937 3.352,93.188C2.24,93.308 1.117,93.315 0,93.375" style="fill:white;"/>
            </g>
            <g transform="matrix(1,0,0,1,593.438,344.592)">
                <path d="M0,16.649C0.104,12.36 1.25,8.895 3.267,5.75C5.531,2.22 8.545,-0.651 11.834,-3.214C13.599,-4.59 14.586,-4.419 15.865,-2.724C16.536,-1.833 17.139,-0.886 17.719,0.068C20.181,4.113 20.809,4.647 16.692,7.92C14.041,10.029 12.134,12.838 11.837,16.433C11.735,17.659 11.078,18.474 9.931,18.948C7.711,19.866 5.445,20.629 3.072,21.022C1.762,21.239 0.914,20.724 0.547,19.425C0.246,18.361 0.113,17.249 0,16.649" style="fill:white;"/>
            </g>
            <g transform="matrix(1,0,0,1,1487.03,344.534)">
                <path d="M0,20.783C-0.793,20.783 -1.589,20.823 -2.38,20.776C-4.805,20.631 -5.604,19.824 -5.411,17.555C-4.877,11.272 -2.045,6.044 2.197,1.529C3.671,-0.04 4.817,-0.029 6.262,1.475C7.688,2.961 9.012,4.552 10.301,6.161C11.406,7.542 11.512,8.264 10.49,9.574C8.503,12.121 7.034,14.903 6.256,18.023C5.797,19.863 4.656,20.665 2.855,20.703C1.904,20.723 0.952,20.707 0,20.707L0,20.783Z" style="fill:white;"/>
            </g>
        </g>
    </g>
</svg>
